<svg width="197" height="160" viewBox="0 0 197 160" fill="none" xmlns="http://www.w3.org/2000/svg">
<g clip-path="url(#clip0_2_1175)">
<path d="M176.039 153.963C176.039 156.187 174.242 157.988 172.023 157.988H24.4213C22.2026 157.988 20.4055 156.187 20.4055 153.963V6.03686C20.4055 3.81324 22.2026 2.01221 24.4213 2.01221H172.023C174.242 2.01221 176.039 3.81324 176.039 6.03686V153.963Z" fill="#F9F9F9"/>
<path opacity="0.3" d="M20.4055 112.413V153.963C20.4055 156.186 22.2026 157.987 24.4213 157.987H172.023C174.242 157.987 176.039 156.186 176.039 153.963V112.413H20.4055Z" fill="#C5C5C5"/>
<path opacity="0.3" d="M53.3704 157.987H143.074L158.043 112.771H38.4014L53.3704 157.987Z" fill="#C5C5C5"/>
<path d="M176.039 153.963C176.039 156.187 174.242 157.988 172.023 157.988H24.4213C22.2026 157.988 20.4055 156.187 20.4055 153.963V6.03686C20.4055 3.81324 22.2026 2.01221 24.4213 2.01221H172.023C174.242 2.01221 176.039 3.81324 176.039 6.03686V153.963Z" stroke="#D8D8D8" stroke-width="8" stroke-miterlimit="10" stroke-linecap="square" stroke-linejoin="round"/>
<path d="M1.00391 112.771H2.00786" stroke="#D8D8D8" stroke-width="4" stroke-linecap="round" stroke-linejoin="round"/>
<path d="M6.77661 112.771H37.7738" stroke="#D8D8D8" stroke-width="4" stroke-linecap="round" stroke-linejoin="round" stroke-dasharray="3.8 3.8"/>
<path d="M40.1582 112.771H41.1622" stroke="#D8D8D8" stroke-width="4" stroke-linecap="round" stroke-linejoin="round"/>
<path d="M155.282 112.771H156.286" stroke="#D8D8D8" stroke-width="4" stroke-linecap="round" stroke-linejoin="round"/>
<path d="M161.055 112.771H192.052" stroke="#D8D8D8" stroke-width="4" stroke-linecap="round" stroke-linejoin="round" stroke-dasharray="3.8 3.8"/>
<path d="M194.437 112.771H195.441" stroke="#D8D8D8" stroke-width="4" stroke-linecap="round" stroke-linejoin="round"/>
<path d="M76.3361 123.688H67.5715V134.614H76.3361V123.688Z" fill="#D8D8D8"/>
<path d="M85.1909 123.688H80.4221V134.614H85.1909V123.688Z" fill="#D8D8D8"/>
<path d="M85.1909 25.3804H80.4221V101.849H85.1909V25.3804Z" fill="#D8D8D8"/>
<path d="M76.3361 25.3804H67.5715V101.849H76.3361V25.3804Z" fill="#D8D8D8"/>
<path d="M147.185 101.849H152.722V29.4755C152.722 27.2116 150.89 25.3804 148.636 25.3804H147.185V101.849Z" fill="#D8D8D8"/>
<path d="M113.422 25.3804H98.127V101.849H113.422V25.3804Z" fill="#D8D8D8"/>
<path d="M94.0459 25.3804H89.2771V101.849H94.0459V25.3804Z" fill="#D8D8D8"/>
<path d="M128.703 25.3804H119.938V101.849H128.703V25.3804Z" fill="#D8D8D8"/>
<path d="M94.0459 123.688H89.2771V134.614H94.0459V123.688Z" fill="#D8D8D8"/>
<path d="M113.422 123.688H98.127V134.614H113.422V123.688Z" fill="#D8D8D8"/>
<path d="M54.5401 123.688H43.7224V130.519C43.7224 132.783 45.5496 134.614 47.8085 134.614H54.5401V123.688Z" fill="#D8D8D8"/>
<path d="M147.185 123.688V134.614H148.636C150.89 134.614 152.722 132.783 152.722 130.519V123.688H147.185Z" fill="#D8D8D8"/>
<path d="M54.541 101.849V25.3804H47.8095C45.5506 25.3804 43.7234 27.2116 43.7234 29.4755V101.849H54.541Z" fill="#D8D8D8"/>
<path d="M128.703 123.688H119.938V134.614H128.703V123.688Z" fill="#D8D8D8"/>
<path d="M141.734 123.688H132.793V134.614H141.734V123.688Z" fill="#D8D8D8"/>
<path d="M141.734 25.3804H132.793V101.849H141.734V25.3804Z" fill="#D8D8D8"/>
<path d="M152.807 110.723H43.637V114.818H152.807V110.723Z" fill="#D8D8D8"/>
</g>
<defs>
<clipPath id="clip0_2_1175">
<rect width="196.444" height="160" fill="white"/>
</clipPath>
</defs>
</svg>
