<svg width="24" height="24" viewBox="0 0 24 24" fill="none" xmlns="http://www.w3.org/2000/svg">
<g clip-path="url(#clip0_2_1766)">
<path fill-rule="evenodd" clip-rule="evenodd" d="M3.27257 2.18237C2.40463 2.18237 1.57224 2.52716 0.958514 3.14089C0.344788 3.75461 0 4.587 0 5.45494L0 7.63723H24V5.45494C24 5.02518 23.9154 4.59963 23.7509 4.20259C23.5864 3.80554 23.3454 3.44477 23.0415 3.14089C22.7376 2.837 22.3768 2.59594 21.9798 2.43148C21.5827 2.26702 21.1572 2.18237 20.7274 2.18237H3.27257ZM24 9.8178H0V18.5452C0 18.975 0.0846476 19.4005 0.24911 19.7976C0.413572 20.1946 0.654628 20.5554 0.958514 20.8593C1.2624 21.1632 1.62317 21.4042 2.02021 21.5687C2.41726 21.7332 2.84281 21.8178 3.27257 21.8178H20.7274C21.1572 21.8178 21.5827 21.7332 21.9798 21.5687C22.3768 21.4042 22.7376 21.1632 23.0415 20.8593C23.3454 20.5554 23.5864 20.1946 23.7509 19.7976C23.9154 19.4005 24 18.975 24 18.5452V9.8178ZM5.304 18.6858H9.05143C9.48885 18.6844 9.90796 18.5101 10.2173 18.2008C10.5266 17.8915 10.7009 17.4724 10.7023 17.0349C10.7014 16.5974 10.5272 16.178 10.2178 15.8686C9.90836 15.5592 9.48898 15.385 9.05143 15.3841H5.304C4.86644 15.385 4.44707 15.5592 4.13767 15.8686C3.82827 16.178 3.65405 16.5974 3.65314 17.0349C3.6545 17.4724 3.82886 17.8915 4.13817 18.2008C4.44747 18.5101 4.86658 18.6844 5.304 18.6858Z" fill="#2E7CD9"/>
</g>
<defs>
<clipPath id="clip0_2_1766">
<rect width="24" height="24" fill="white"/>
</clipPath>
</defs>
</svg>
