<svg width="24" height="24" viewBox="0 0 24 24" fill="none" xmlns="http://www.w3.org/2000/svg">
<path d="M22.6286 0.171387H1.38C1.01562 0.171829 0.666163 0.316189 0.407705 0.573042C0.149247 0.829894 0.00271225 1.17844 0 1.54282L0 16.4451C0.00224794 16.8081 0.147459 17.1557 0.404166 17.4124C0.660873 17.6691 1.0084 17.8143 1.37143 17.8165H22.6286C22.9915 17.8138 23.3387 17.6685 23.5953 17.4119C23.852 17.1553 23.9973 16.808 24 16.4451V1.54282C23.9973 1.17992 23.852 0.832655 23.5953 0.576043C23.3387 0.319432 22.9915 0.174078 22.6286 0.171387ZM21.2571 11.964C20.5276 12.192 19.8641 12.5934 19.3234 13.1338C18.7828 13.6741 18.381 14.3374 18.1526 15.0668H5.86457C5.63581 14.3372 5.23376 13.6739 4.69281 13.1336C4.15187 12.5932 3.48811 12.1919 2.75829 11.964V6.03082C3.48811 5.80286 4.15187 5.40155 4.69281 4.86119C5.23376 4.32084 5.63581 3.65753 5.86457 2.92796H18.1371C18.3654 3.65754 18.767 4.32094 19.3077 4.86133C19.8484 5.40173 20.512 5.80301 21.2417 6.03082L21.2571 11.964Z" fill="#2E7CD9"/>
<path d="M12 5.31421C11.108 5.4042 10.2866 5.84006 9.71207 6.52838C9.13751 7.2167 8.85545 8.1027 8.92632 8.9965C8.85356 9.89142 9.13477 10.7792 9.70952 11.469C10.2843 12.1588 11.1067 12.5957 12 12.6856C12.8934 12.5957 13.7158 12.1588 14.2906 11.469C14.8653 10.7792 15.1465 9.89142 15.0738 8.9965C15.1446 8.1027 14.8626 7.2167 14.288 6.52838C13.7134 5.84006 12.8921 5.4042 12 5.31421Z" fill="#2E7CD9"/>
<path d="M9.44077e-07 22.2703C-0.000224621 22.4752 0.039972 22.6782 0.118289 22.8676C0.196607 23.0569 0.311507 23.229 0.456411 23.3739C0.601316 23.5188 0.773378 23.6337 0.962748 23.712C1.15212 23.7903 1.35508 23.8305 1.56 23.8303H22.4383C22.6432 23.8305 22.8462 23.7903 23.0355 23.712C23.2249 23.6337 23.397 23.5188 23.5419 23.3739C23.6868 23.229 23.8017 23.0569 23.88 22.8676C23.9583 22.6782 23.9985 22.4752 23.9983 22.2703V21.0703H9.44077e-07V22.2703Z" fill="#2E7CD9"/>
</svg>
