<svg width="18" height="18" viewBox="0 0 18 18" fill="none" xmlns="http://www.w3.org/2000/svg">
<path d="M9 18.0747C7.21997 18.0747 5.47991 17.5469 3.99987 16.5579C2.51983 15.569 1.36628 14.1634 0.685088 12.5189C0.00389963 10.8743 -0.17433 9.06473 0.172937 7.3189C0.520203 5.57307 1.37737 3.96942 2.63604 2.71075C3.89472 1.45208 5.49836 0.594911 7.24419 0.247644C8.99002 -0.0996234 10.7996 0.0786066 12.4442 0.759795C14.0887 1.44098 15.4943 2.59454 16.4832 4.07458C17.4722 5.55462 18 7.29468 18 9.07471C17.9973 11.4608 17.0482 13.7484 15.361 15.4357C13.6737 17.1229 11.3861 18.072 9 18.0747ZM6.79372 14.6573C7.88229 15.0892 9.07348 15.1929 10.2203 14.9558C11.3672 14.7186 12.4195 14.1509 13.2475 13.3226C14.0754 12.4944 14.6428 11.4419 14.8796 10.2949C15.1164 9.14801 15.0123 7.95685 14.58 6.86843C14.5391 6.7717 14.4752 6.68647 14.3937 6.62017C14.3123 6.55387 14.2159 6.50853 14.1129 6.48811C14.0099 6.46769 13.9035 6.4728 13.8029 6.50302C13.7023 6.53323 13.6107 6.58762 13.536 6.66143L6.59315 13.6043C6.51717 13.6784 6.46074 13.7702 6.42889 13.8715C6.39704 13.9728 6.39077 14.0804 6.41063 14.1846C6.4305 14.2889 6.47588 14.3867 6.54273 14.4692C6.60957 14.5516 6.6958 14.6163 6.79372 14.6573ZM7.92129 3.172C7.0482 3.33106 6.22128 3.68189 5.50017 4.19919C4.77907 4.71649 4.18174 5.38737 3.75128 6.16344C3.32081 6.93951 3.06792 7.80144 3.01086 8.68707C2.9538 9.5727 3.09398 10.46 3.42129 11.2849C3.4621 11.3818 3.52607 11.4673 3.60761 11.5337C3.68914 11.6002 3.78574 11.6457 3.88893 11.6661C3.99212 11.6865 4.09875 11.6813 4.19946 11.651C4.30018 11.6206 4.3919 11.5659 4.46658 11.4919L11.4159 4.549C11.4897 4.47431 11.5441 4.38267 11.5743 4.28211C11.6045 4.18155 11.6096 4.07511 11.5892 3.97211C11.5688 3.86911 11.5234 3.77268 11.4571 3.69125C11.3908 3.60982 11.3056 3.54588 11.2089 3.505C10.1657 3.08884 9.027 2.97261 7.92129 3.16943V3.172Z" fill="#F23030"/>
</svg>
