<svg width="12" height="12" viewBox="0 0 12 12" fill="none" xmlns="http://www.w3.org/2000/svg">
<path fill-rule="evenodd" clip-rule="evenodd" d="M8.77711 0.837664L5.88568 3.72681L2.99425 0.835378C2.84192 0.67673 2.65944 0.550086 2.45753 0.462871C2.25562 0.375656 2.03833 0.329623 1.8184 0.327472C1.59846 0.32532 1.38031 0.367093 1.17673 0.450342C0.973152 0.53359 0.788238 0.656639 0.632828 0.812277C0.477419 0.967915 0.354641 1.15301 0.271691 1.35671C0.188741 1.56041 0.147289 1.77862 0.149763 1.99855C0.152237 2.21848 0.198588 2.43571 0.2861 2.63749C0.373611 2.83928 0.500522 3.02156 0.659394 3.17366L3.54968 6.06509L0.66168 8.95309C0.359745 9.26505 0.192494 9.68317 0.195986 10.1173C0.199477 10.5514 0.37343 10.9668 0.680343 11.2739C0.987255 11.5809 1.40254 11.7551 1.83667 11.7588C2.2708 11.7625 2.689 11.5954 3.00111 11.2937L5.88568 8.39995L8.77482 11.2902C8.92728 11.4486 9.10977 11.5749 9.31162 11.6619C9.51348 11.7489 9.73066 11.7948 9.95045 11.7969C10.1702 11.799 10.3883 11.7572 10.5917 11.674C10.7952 11.5909 10.98 11.468 11.1355 11.3126C11.2909 11.1572 11.4138 10.9723 11.4969 10.7688C11.5801 10.5654 11.6218 10.3474 11.6198 10.1276C11.6177 9.90778 11.5718 9.69061 11.4848 9.48875C11.3978 9.28689 11.2714 9.1044 11.1131 8.95195L8.22854 6.06623L11.1165 3.17824C11.4185 2.86628 11.5857 2.44816 11.5822 2.01403C11.5787 1.5799 11.4048 1.16452 11.0979 0.85746C10.791 0.550398 10.3757 0.376242 9.94154 0.372538C9.50741 0.368835 9.08922 0.535882 8.77711 0.837664Z" fill="#969696"/>
</svg>
