<svg width="18" height="18" viewBox="0 0 18 18" fill="none" xmlns="http://www.w3.org/2000/svg">
<path fill-rule="evenodd" clip-rule="evenodd" d="M13.1655 1.25686L8.8284 5.59058L4.49125 1.25343C4.26275 1.01546 3.98904 0.825496 3.68618 0.694673C3.38331 0.56385 3.05737 0.494801 2.72747 0.491574C2.39757 0.488346 2.07035 0.551006 1.76498 0.675879C1.45961 0.800752 1.18223 0.985325 0.94912 1.21878C0.716006 1.45224 0.531839 1.72988 0.407414 2.03543C0.28299 2.34099 0.220811 2.6683 0.224522 2.9982C0.228233 3.32809 0.29776 3.65393 0.429027 3.9566C0.560295 4.25928 0.750661 4.53271 0.988968 4.76086L5.3244 9.09801L0.992397 13.43C0.539495 13.8979 0.288619 14.5251 0.293856 15.1763C0.299093 15.8275 0.560023 16.4506 1.02039 16.9112C1.48076 17.3718 2.10369 17.633 2.75489 17.6385C3.40608 17.6441 4.03338 17.3935 4.50154 16.9409L8.8284 12.6003L13.1621 16.9357C13.3908 17.1732 13.6645 17.3628 13.9673 17.4933C14.2701 17.6237 14.5959 17.6926 14.9256 17.6957C15.2552 17.6988 15.5823 17.6362 15.8875 17.5114C16.1927 17.3867 16.4699 17.2024 16.7031 16.9693C16.9362 16.7361 17.1205 16.4588 17.2453 16.1536C17.37 15.8484 17.4326 15.5214 17.4295 15.1917C17.4264 14.862 17.3576 14.5363 17.2271 14.2335C17.0966 13.9307 16.9071 13.657 16.6695 13.4283L12.3427 9.09972L16.6747 4.76772C17.1276 4.29978 17.3785 3.67261 17.3732 3.02141C17.368 2.37021 17.1071 1.74715 16.6467 1.28656C16.1863 0.825963 15.5634 0.564729 14.9122 0.559174C14.261 0.553619 13.6337 0.804189 13.1655 1.25686Z" fill="#969696"/>
</svg>
