<svg width="18" height="14" viewBox="0 0 18 14" fill="none" xmlns="http://www.w3.org/2000/svg">
<path d="M5.10823 13.138L0.642947 8.67141C0.438113 8.46675 0.27562 8.22373 0.164755 7.95624C0.0538895 7.68876 -0.00317383 7.40204 -0.00317383 7.11248C-0.00317383 6.82293 0.0538895 6.53621 0.164755 6.26872C0.27562 6.00123 0.438113 5.75821 0.642947 5.55356C1.05661 5.1405 1.6173 4.9085 2.20188 4.9085C2.78645 4.9085 3.34714 5.1405 3.7608 5.55356L6.55723 8.34741C6.61361 8.40347 6.68987 8.43494 6.76937 8.43494C6.84888 8.43494 6.92515 8.40347 6.98152 8.34741L14.2329 1.09598C14.6466 0.682929 15.2073 0.450928 15.7919 0.450928C16.3765 0.450928 16.9371 0.682929 17.3508 1.09598C17.5556 1.30064 17.7181 1.54366 17.829 1.81115C17.9399 2.07864 17.9969 2.36536 17.9969 2.65491C17.9969 2.94447 17.9399 3.23118 17.829 3.49867C17.7181 3.76616 17.5556 4.00918 17.3508 4.21384L8.42795 13.138C7.98768 13.5781 7.39063 13.8254 6.76809 13.8254C6.14555 13.8254 5.5485 13.5781 5.10823 13.138Z" fill="#565656"/>
</svg>
