<svg width="18" height="16" viewBox="0 0 18 16" fill="none" xmlns="http://www.w3.org/2000/svg">
<path fill-rule="evenodd" clip-rule="evenodd" d="M9.23016 13.3074L13.1915 9.39235L1.37059 9.33835C1.18971 9.33768 1.01074 9.30134 0.843923 9.23142C0.677104 9.1615 0.52571 9.05937 0.398407 8.93087C0.271103 8.80238 0.17039 8.65003 0.10203 8.48257C0.0336702 8.3151 -0.000993851 8.1358 2.16843e-05 7.95493C0.000863563 7.77415 0.0373245 7.59532 0.10732 7.42865C0.177316 7.26198 0.279474 7.11074 0.407955 6.98357C0.536435 6.8564 0.688719 6.7558 0.856101 6.68752C1.02348 6.61925 1.20268 6.58462 1.38345 6.58564L13.2017 6.63835L9.29316 2.6835C9.16577 2.55522 9.06491 2.4031 8.99634 2.23582C8.92778 2.06855 8.89285 1.88939 8.89357 1.70861C8.89429 1.52783 8.93063 1.34896 9.00052 1.18223C9.07041 1.0155 9.17247 0.864182 9.30088 0.736924C9.56049 0.480043 9.91145 0.336706 10.2767 0.338394C10.6419 0.340081 10.9915 0.486655 11.2487 0.745924L17.6773 7.2375C17.888 7.45063 18.0055 7.73873 18.0038 8.03843C18.0021 8.33814 17.8814 8.6249 17.6683 8.83564L11.1716 15.2642C10.9122 15.521 10.5615 15.6643 10.1964 15.6626C9.83144 15.6609 9.48203 15.5144 9.22502 15.2552C9.09742 15.127 8.99633 14.9749 8.92753 14.8076C8.85872 14.6403 8.82356 14.4611 8.82403 14.2802C8.82451 14.0993 8.86063 13.9203 8.93031 13.7534C9 13.5865 9.10189 13.4349 9.23016 13.3074Z" fill="#969696"/>
</svg>
