<svg width="20" height="21" viewBox="0 0 20 21" fill="none" xmlns="http://www.w3.org/2000/svg">
<path d="M7.5 5.4823V8.47408H4.5V5.4823H7.5ZM9 3.98641H3V9.96997H9V3.98641ZM7.5 13.4604V16.4522H4.5V13.4604H7.5ZM9 11.9645H3V17.9481H9V11.9645ZM15.5 5.4823V8.47408H12.5V5.4823H15.5ZM17 3.98641H11V9.96997H17V3.98641ZM11 11.9645H12.5V13.4604H11V11.9645ZM12.5 13.4604H14V14.9563H12.5V13.4604ZM14 11.9645H15.5V13.4604H14V11.9645ZM11 14.9563H12.5V16.4522H11V14.9563ZM12.5 16.4522H14V17.9481H12.5V16.4522ZM14 14.9563H15.5V16.4522H14V14.9563ZM15.5 13.4604H17V14.9563H15.5V13.4604ZM15.5 16.4522H17V17.9481H15.5V16.4522ZM20 5.98093H18V2.98915H15V0.994629H20V5.98093ZM20 20.9398V15.9535H18V18.9453H15V20.9398H20ZM0 20.9398H5V18.9453H2V15.9535H0V20.9398ZM0 0.994629V5.98093H2V2.98915H5V0.994629H0Z" fill="#969696"/>
</svg>
