<svg width="40" height="40" viewBox="0 0 40 40" fill="none" xmlns="http://www.w3.org/2000/svg">
<path fill-rule="evenodd" clip-rule="evenodd" d="M24.7743 38.5486C23.8411 39.4806 22.5761 40.0041 21.2572 40.0041C19.9382 40.0041 18.6732 39.4806 17.74 38.5486L2.57144 23.3657C1.05415 21.7242 0.166538 19.5988 0.0657274 17.3657L1.31545e-05 4.98286C-0.00149252 4.32832 0.12627 3.67993 0.37597 3.07489C0.62567 2.46985 0.992391 1.92007 1.45509 1.45711C1.91779 0.994142 2.46735 0.627106 3.07225 0.377059C3.67715 0.127012 4.32547 -0.00112284 4.98001 7.41254e-06L17.3686 0.0600074C19.6025 0.161899 21.7282 1.05164 23.3686 2.57144L38.5429 17.7343C39.4737 18.6687 39.9963 19.9339 39.9963 21.2529C39.9963 22.5718 39.4737 23.837 38.5429 24.7714L24.7772 38.5486H24.7743ZM12.4886 17.5C13.4775 17.5 14.4442 17.2068 15.2664 16.6574C16.0887 16.1079 16.7295 15.3271 17.108 14.4134C17.4864 13.4998 17.5854 12.4945 17.3925 11.5246C17.1996 10.5546 16.7234 9.66374 16.0241 8.96447C15.3249 8.26521 14.4339 7.78901 13.464 7.59608C12.4941 7.40315 11.4888 7.50217 10.5752 7.88061C9.66154 8.25905 8.88064 8.89991 8.33124 9.72216C7.78183 10.5444 7.48858 11.5111 7.48858 12.5C7.48821 13.1567 7.61728 13.8071 7.86842 14.4139C8.11956 15.0207 8.48784 15.572 8.95221 16.0364C9.41658 16.5007 9.96793 16.869 10.5747 17.1202C11.1815 17.3713 11.8319 17.5004 12.4886 17.5Z" fill="#969696"/>
</svg>
