<svg width="24" height="20" viewBox="0 0 24 20" fill="none" xmlns="http://www.w3.org/2000/svg">
<path fill-rule="evenodd" clip-rule="evenodd" d="M3.27257 0.182373C2.40463 0.182373 1.57224 0.527161 0.958514 1.14089C0.344788 1.75461 0 2.587 0 3.45494L0 5.63723H24V3.45494C24 3.02518 23.9154 2.59963 23.7509 2.20259C23.5864 1.80554 23.3454 1.44477 23.0415 1.14089C22.7376 0.837001 22.3768 0.595945 21.9798 0.431483C21.5827 0.267021 21.1572 0.182373 20.7274 0.182373H3.27257ZM24 7.8178H0V16.5452C0 16.975 0.0846476 17.4005 0.24911 17.7976C0.413572 18.1946 0.654628 18.5554 0.958514 18.8593C1.2624 19.1632 1.62317 19.4042 2.02021 19.5687C2.41726 19.7332 2.84281 19.8178 3.27257 19.8178H20.7274C21.1572 19.8178 21.5827 19.7332 21.9798 19.5687C22.3768 19.4042 22.7376 19.1632 23.0415 18.8593C23.3454 18.5554 23.5864 18.1946 23.7509 17.7976C23.9154 17.4005 24 16.975 24 16.5452V7.8178ZM5.304 16.6858H9.05143C9.48885 16.6844 9.90796 16.5101 10.2173 16.2008C10.5266 15.8915 10.7009 15.4724 10.7023 15.0349C10.7014 14.5974 10.5272 14.178 10.2178 13.8686C9.90836 13.5592 9.48899 13.385 9.05143 13.3841H5.304C4.86644 13.385 4.44707 13.5592 4.13767 13.8686C3.82827 14.178 3.65405 14.5974 3.65314 15.0349C3.6545 15.4724 3.82886 15.8915 4.13817 16.2008C4.44747 16.5101 4.86658 16.6844 5.304 16.6858Z" fill="#969696"/>
</svg>
