<svg width="12" height="13" viewBox="0 0 12 13" fill="none" xmlns="http://www.w3.org/2000/svg">
<path d="M0.413074 7.4617L4.76822 11.8168C5.03296 12.0815 5.39199 12.2302 5.76636 12.2302C6.14073 12.2302 6.49976 12.0815 6.7645 11.8168L11.3802 7.20198C11.7771 6.80473 12 6.26611 11.9999 5.70455V1.28941C12.0002 1.15029 11.9729 1.0125 11.9198 0.883915C11.8667 0.755333 11.7888 0.638491 11.6904 0.540081C11.5921 0.44167 11.4753 0.363624 11.3468 0.310412C11.2182 0.2572 11.0805 0.229868 10.9414 0.229981H6.52536C6.24737 0.230059 5.97212 0.284904 5.71534 0.391384C5.45855 0.497863 5.22526 0.65389 5.02879 0.850552L0.413074 5.46627C0.282037 5.59728 0.178092 5.75282 0.107175 5.92401C0.036257 6.0952 -0.000244141 6.27868 -0.000244141 6.46398C-0.000244141 6.64928 0.036257 6.83276 0.107175 7.00395C0.178092 7.17514 0.282037 7.33068 0.413074 7.4617ZM9.47565 3.58398C9.28935 3.58313 9.10748 3.52712 8.95299 3.423C8.79851 3.31889 8.67833 3.17134 8.60762 2.99898C8.53691 2.82662 8.51885 2.63718 8.55572 2.45457C8.59258 2.27196 8.68271 2.10436 8.81474 1.97292C8.94677 1.84149 9.11478 1.75212 9.29756 1.71608C9.48034 1.68005 9.66969 1.69897 9.84173 1.77045C10.0138 1.84194 10.1608 1.96279 10.2642 2.11775C10.3676 2.27271 10.4228 2.45483 10.4228 2.64112C10.4228 2.7653 10.3983 2.88826 10.3506 3.00293C10.303 3.1176 10.2331 3.22174 10.1451 3.30934C10.0571 3.39695 9.95266 3.46631 9.83778 3.51344C9.72289 3.56057 9.59982 3.58455 9.47565 3.58398ZM3.91622 5.67284L6.4405 8.20141C6.55883 8.31973 6.6253 8.48022 6.6253 8.64755C6.6253 8.81489 6.55883 8.97537 6.4405 9.09369C6.32218 9.21202 6.1617 9.27849 5.99436 9.27849C5.82702 9.27849 5.66654 9.21202 5.54822 9.09369L3.02393 6.56512C2.90561 6.4468 2.83913 6.28632 2.83913 6.11898C2.83913 5.95164 2.90561 5.79116 3.02393 5.67284C3.14226 5.55451 3.30274 5.48804 3.47007 5.48804C3.63741 5.48804 3.79789 5.55451 3.91622 5.67284Z" fill="#42AB44"/>
</svg>
