<svg width="24" height="24" viewBox="0 0 24 24" fill="none" xmlns="http://www.w3.org/2000/svg">
<g clip-path="url(#clip0_2_1277)">
<path fill-rule="evenodd" clip-rule="evenodd" d="M22.644 0.0514668L1.02852 8.36061C0.826959 8.4385 0.654195 8.57644 0.533623 8.75577C0.413051 8.93509 0.350494 9.14714 0.354422 9.36319C0.358351 9.57925 0.428574 9.78888 0.555585 9.9637C0.682596 10.1385 0.860261 10.2701 1.06452 10.3406L5.86453 12.0223C6.07543 12.0962 6.30008 12.1225 6.52235 12.0994C6.74463 12.0763 6.95905 12.0043 7.15024 11.8886L17.6382 5.56461C17.7089 5.52857 17.7899 5.51814 17.8674 5.53511C17.9449 5.55208 18.0141 5.59539 18.0632 5.65767C18.1123 5.71994 18.1383 5.79733 18.1368 5.87664C18.1353 5.95595 18.1063 6.03227 18.0548 6.09261L10.1862 14.0846C10.0468 14.2077 9.93493 14.3588 9.85783 14.5281C9.78074 14.6973 9.74018 14.8809 9.73881 15.0669L9.7011 23.3143C9.71099 23.4754 9.77381 23.6286 9.87979 23.7503C9.98577 23.8719 10.129 23.9552 10.2871 23.987C10.4453 24.0189 10.6096 23.9976 10.7544 23.9265C10.8992 23.8554 11.0165 23.7384 11.088 23.5938L13.9782 17.7309C14.149 17.4578 14.4197 17.2623 14.7326 17.1861C15.0456 17.1098 15.3759 17.1589 15.6531 17.3229L20.7805 20.1515C20.9446 20.2416 21.1288 20.2888 21.3159 20.2888C21.5031 20.2888 21.6873 20.2416 21.8514 20.1515C22.0155 20.0614 22.1542 19.9314 22.2547 19.7735C22.3551 19.6156 22.4142 19.4348 22.4262 19.248L23.64 0.71661C23.6404 0.597997 23.6115 0.481119 23.5557 0.376413C23.5 0.271707 23.4192 0.182431 23.3206 0.116558C23.2219 0.0506848 23.1085 0.0102645 22.9905 -0.0010936C22.8724 -0.0124517 22.7533 0.00560589 22.644 0.0514668Z" fill="#EEEEEE"/>
</g>
<defs>
<clipPath id="clip0_2_1277">
<rect width="24" height="24" fill="white"/>
</clipPath>
</defs>
</svg>
