<svg width="16" height="16" viewBox="0 0 16 16" fill="none" xmlns="http://www.w3.org/2000/svg">
<path fill-rule="evenodd" clip-rule="evenodd" d="M6.97151 0.190657C5.64546 0.402572 4.39669 0.953593 3.34632 1.79027C2.29595 2.62695 1.47964 3.72089 0.976567 4.96597C0.473497 6.21106 0.300746 7.56502 0.475069 8.89653C0.649392 10.228 1.16487 11.4919 1.97151 12.5655L0.194365 14.4729C0.0987838 14.5754 0.0352438 14.7036 0.0115606 14.8417C-0.0121226 14.9799 0.00508402 15.1219 0.0610639 15.2504C0.117044 15.3789 0.209355 15.4882 0.326644 15.5649C0.443932 15.6416 0.581081 15.6823 0.721222 15.6821H7.88579C9.9335 15.7132 11.9152 14.9579 13.4226 13.5716C14.93 12.1854 15.8485 10.2738 15.9886 8.23066C16.0388 7.07541 15.8314 5.92346 15.3815 4.85824C14.9316 3.79302 14.2504 2.84117 13.3873 2.07161C12.5242 1.30206 11.5008 0.734063 10.3912 0.408746C9.28157 0.083429 8.11348 0.00893492 6.97151 0.190657Z" fill="#FF881B"/>
</svg>
