<svg width="20" height="20" viewBox="0 0 20 20" fill="none" xmlns="http://www.w3.org/2000/svg">
<path d="M10 0C8.02219 0 6.08879 0.58649 4.4443 1.6853C2.79981 2.78412 1.51809 4.3459 0.761209 6.17317C0.00433292 8.00043 -0.193701 10.0111 0.192152 11.9509C0.578004 13.8907 1.53041 15.6725 2.92894 17.0711C4.32746 18.4696 6.10929 19.422 8.0491 19.8079C9.98891 20.1937 11.9996 19.9957 13.8268 19.2388C15.6541 18.4819 17.2159 17.2002 18.3147 15.5557C19.4135 13.9112 20 11.9778 20 10C20 7.34784 18.9464 4.8043 17.0711 2.92893C15.1957 1.05357 12.6522 0 10 0ZM13.9386 11.4614H6.06001C5.69176 11.4497 5.3425 11.2952 5.08614 11.0306C4.82979 10.766 4.68644 10.412 4.68644 10.0436C4.68644 9.67514 4.82979 9.32116 5.08614 9.05653C5.3425 8.79191 5.69176 8.63741 6.06001 8.62571H13.9386C14.1286 8.61968 14.3178 8.65189 14.4951 8.72043C14.6724 8.78897 14.8341 8.89244 14.9706 9.0247C15.1071 9.15696 15.2157 9.3153 15.2898 9.49033C15.364 9.66535 15.4022 9.85349 15.4022 10.0436C15.4022 10.2337 15.364 10.4218 15.2898 10.5968C15.2157 10.7718 15.1071 10.9302 14.9706 11.0624C14.8341 11.1947 14.6724 11.2982 14.4951 11.3667C14.3178 11.4352 14.1286 11.4675 13.9386 11.4614Z" fill="#969696"/>
</svg>
