<svg width="16" height="16" viewBox="0 0 16 16" fill="none" xmlns="http://www.w3.org/2000/svg">
<path d="M15.7772 10.6355L14.0161 8.58975C13.8757 8.44944 13.7644 8.28285 13.6885 8.09949C13.6127 7.91613 13.5737 7.71962 13.5738 7.52117V5.7806C13.5316 4.34976 12.951 2.98754 11.9479 1.96627C10.9449 0.944999 9.59335 0.339934 8.1635 0.272033C6.70068 0.218541 5.27566 0.743359 4.19696 1.73286C3.11827 2.72236 2.47271 4.0969 2.40007 5.55889V7.52117C2.40019 7.71962 2.36119 7.91613 2.2853 8.09949C2.20941 8.28285 2.09811 8.44944 1.95778 8.58975L0.228638 10.6355C0.123268 10.7413 0.0515935 10.876 0.0226456 11.0225C-0.00630234 11.1691 0.00877201 11.3209 0.065969 11.4589C0.123166 11.5969 0.219926 11.7148 0.344055 11.7979C0.468184 11.881 0.614128 11.9255 0.763495 11.9257H15.2435C15.393 11.9258 15.5392 11.8815 15.6635 11.7984C15.7878 11.7153 15.8846 11.5972 15.9418 11.4591C15.9989 11.3209 16.0138 11.1689 15.9845 11.0223C15.9552 10.8757 15.8831 10.741 15.7772 10.6355Z" fill="#FF881B"/>
<path d="M5.08569 13.4641C5.21465 14.1307 5.58115 14.7279 6.11713 15.1447C6.65311 15.5615 7.32214 15.7696 7.99998 15.7304C8.67795 15.7696 9.34714 15.5616 9.88331 15.1448C10.4195 14.728 10.7862 14.1308 10.9154 13.4641H5.08569Z" fill="#FF881B"/>
</svg>
