<svg width="20" height="20" viewBox="0 0 20 20" fill="none" xmlns="http://www.w3.org/2000/svg">
<path d="M10 0C8.02219 0 6.08879 0.58649 4.4443 1.6853C2.79981 2.78412 1.51809 4.3459 0.761209 6.17317C0.00433292 8.00043 -0.193701 10.0111 0.192152 11.9509C0.578004 13.8907 1.53041 15.6725 2.92894 17.0711C4.32746 18.4696 6.10929 19.422 8.0491 19.8079C9.98891 20.1937 11.9996 19.9957 13.8268 19.2388C15.6541 18.4819 17.2159 17.2002 18.3147 15.5557C19.4135 13.9112 20 11.9778 20 10C20 7.34784 18.9464 4.8043 17.0711 2.92893C15.1957 1.05357 12.6522 0 10 0ZM13.94 11.4614H11.4171V13.9829C11.4171 14.3587 11.2678 14.7192 11.0021 14.9849C10.7363 15.2507 10.3759 15.4 10 15.4C9.62416 15.4 9.2637 15.2507 8.99793 14.9849C8.73217 14.7192 8.58286 14.3587 8.58286 13.9829V11.4614H6.06001C5.69176 11.4497 5.3425 11.2952 5.08614 11.0306C4.82979 10.766 4.68644 10.412 4.68644 10.0436C4.68644 9.67514 4.82979 9.32116 5.08614 9.05653C5.3425 8.79191 5.69176 8.63741 6.06001 8.62571H8.58286V6.10429C8.58286 5.72844 8.73217 5.36798 8.99793 5.10221C9.2637 4.83645 9.62416 4.68714 10 4.68714C10.3759 4.68714 10.7363 4.83645 11.0021 5.10221C11.2678 5.36798 11.4171 5.72844 11.4171 6.10429V8.62571H13.94C14.3083 8.63741 14.6575 8.79191 14.9139 9.05653C15.1702 9.32116 15.3136 9.67514 15.3136 10.0436C15.3136 10.412 15.1702 10.766 14.9139 11.0306C14.6575 11.2952 14.3083 11.4497 13.94 11.4614Z" fill="#969696"/>
</svg>
