<svg width="24" height="24" viewBox="0 0 24 24" fill="none" xmlns="http://www.w3.org/2000/svg">
<g clip-path="url(#clip0_2_1281)">
<path d="M20.0196 5.184V1.71429C20.0196 1.25963 19.839 0.823594 19.5175 0.502103C19.196 0.180612 18.76 0 18.3053 0L17.6402 0C17.1855 0 16.7495 0.180612 16.428 0.502103C16.1065 0.823594 15.9259 1.25963 15.9259 1.71429V5.184C14.9219 5.58939 14.062 6.28553 13.4564 7.18309C12.8509 8.08065 12.5273 9.13869 12.5273 10.2214C12.5273 11.3042 12.8509 12.3622 13.4564 13.2598C14.062 14.1573 14.9219 14.8535 15.9259 15.2589V22.2857C15.9259 22.7404 16.1065 23.1764 16.428 23.4979C16.7495 23.8194 17.1855 24 17.6402 24H18.3053C18.76 24 19.196 23.8194 19.5175 23.4979C19.839 23.1764 20.0196 22.7404 20.0196 22.2857V15.2571C21.0236 14.8518 21.8836 14.1556 22.4891 13.2581C23.0947 12.3605 23.4182 11.3025 23.4182 10.2197C23.4182 9.13698 23.0947 8.07894 22.4891 7.18138C21.8836 6.28381 21.0236 5.58767 20.0196 5.18229V5.184ZM17.9728 12.2366C17.574 12.2366 17.1843 12.1183 16.8527 11.8968C16.5212 11.6753 16.2628 11.3604 16.1102 10.9921C15.9576 10.6237 15.9177 10.2183 15.9955 9.82727C16.0733 9.4362 16.2653 9.07699 16.5472 8.79504C16.8292 8.5131 17.1884 8.3211 17.5795 8.24331C17.9705 8.16552 18.3759 8.20544 18.7443 8.35803C19.1126 8.51062 19.4275 8.76901 19.649 9.10054C19.8705 9.43207 19.9888 9.82184 19.9888 10.2206C19.9883 10.7551 19.7758 11.2676 19.3978 11.6456C19.0198 12.0236 18.5073 12.2361 17.9728 12.2366Z" fill="#EEEEEE"/>
<path d="M7.92685 8.74286V1.71429C7.92685 1.25963 7.74624 0.823594 7.42475 0.502103C7.10326 0.180612 6.66722 0 6.21257 0L5.54914 0C5.09448 0 4.65845 0.180612 4.33696 0.502103C4.01547 0.823594 3.83485 1.25963 3.83485 1.71429V8.74286C2.83087 9.14824 1.97093 9.84438 1.36537 10.7419C0.759816 11.6395 0.436279 12.6975 0.436279 13.7803C0.436279 14.863 0.759816 15.9211 1.36537 16.8186C1.97093 17.7162 2.83087 18.4123 3.83485 18.8177V22.2857C3.83485 22.7404 4.01547 23.1764 4.33696 23.4979C4.65845 23.8194 5.09448 24 5.54914 24H6.21428C6.66894 24 7.10497 23.8194 7.42647 23.4979C7.74796 23.1764 7.92857 22.7404 7.92857 22.2857V18.816C8.93255 18.4106 9.7925 17.7145 10.3981 16.8169C11.0036 15.9193 11.3271 14.8613 11.3271 13.7786C11.3271 12.6958 11.0036 11.6378 10.3981 10.7402C9.7925 9.84267 8.93255 9.14653 7.92857 8.74114L7.92685 8.74286ZM5.88 15.7937C5.48127 15.7934 5.0916 15.6748 4.76026 15.453C4.42892 15.2312 4.17079 14.9161 4.01851 14.5476C3.86624 14.1791 3.82666 13.7737 3.90478 13.3827C3.9829 12.9917 4.17521 12.6327 4.4574 12.351C4.73958 12.0693 5.09896 11.8776 5.49009 11.8001C5.88122 11.7227 6.28654 11.7629 6.65478 11.9158C7.02303 12.0687 7.33767 12.3274 7.55891 12.6591C7.78015 12.9908 7.89805 13.3807 7.89771 13.7794C7.8968 14.314 7.68382 14.8263 7.30553 15.204C6.92723 15.5816 6.41453 15.7937 5.88 15.7937Z" fill="#EEEEEE"/>
</g>
<defs>
<clipPath id="clip0_2_1281">
<rect width="24" height="24" fill="white"/>
</clipPath>
</defs>
</svg>
