<svg width="20" height="20" viewBox="0 0 20 20" fill="none" xmlns="http://www.w3.org/2000/svg">
<path d="M11.1064 8.66435H6.57158L7.391 7.8381C7.51482 7.71398 7.61297 7.5667 7.67987 7.40465C7.74676 7.2426 7.78108 7.06897 7.78087 6.89366C7.78066 6.71835 7.74592 6.54479 7.67863 6.38291C7.61135 6.22102 7.51283 6.07398 7.38872 5.95016C7.2646 5.82635 7.11731 5.7282 6.95526 5.6613C6.79321 5.59441 6.61957 5.56009 6.44426 5.5603C6.26894 5.56052 6.09538 5.59526 5.9335 5.66254C5.77161 5.72983 5.62456 5.82834 5.50074 5.95245L2.38993 9.07005C2.26515 9.19502 2.16643 9.34352 2.0995 9.50694C2.03257 9.67036 1.99876 9.84544 2.00003 10.022C2.00131 10.1986 2.03764 10.3732 2.10693 10.5356C2.17621 10.6981 2.27707 10.8451 2.40364 10.9683L5.59217 14.0619C5.71764 14.1843 5.866 14.2809 6.02878 14.346C6.19156 14.4111 6.36558 14.4436 6.54089 14.4415C6.7162 14.4393 6.88938 14.4027 7.05054 14.3336C7.2117 14.2646 7.35768 14.1645 7.48014 14.039C7.60261 13.9136 7.69916 13.7652 7.76429 13.6024C7.82942 13.4396 7.86185 13.2656 7.85973 13.0903C7.8576 12.915 7.82097 12.7418 7.75192 12.5807C7.68287 12.4195 7.58275 12.2735 7.45729 12.1511L6.6013 11.3351H11.1064C11.4538 11.325 11.7836 11.1798 12.0257 10.9305C12.2678 10.6812 12.4033 10.3473 12.4033 9.99973C12.4033 9.65218 12.2678 9.31831 12.0257 9.06899C11.7836 8.81967 11.4538 8.67452 11.1064 8.66435Z" fill="#E5F1FF"/>
<path d="M17.5693 2.43141C17.4329 2.29458 17.2708 2.18607 17.0923 2.11213C16.9138 2.03819 16.7225 2.00027 16.5293 2.00057H12.8436C12.6471 1.99509 12.4515 2.02907 12.2683 2.10049C12.0851 2.17191 11.9181 2.27933 11.7772 2.41639C11.6362 2.55346 11.5242 2.71739 11.4477 2.8985C11.3712 3.0796 11.3318 3.27421 11.3318 3.4708C11.3318 3.6674 11.3712 3.86201 11.4477 4.04311C11.5242 4.22422 11.6362 4.38815 11.7772 4.52521C11.9181 4.66228 12.0851 4.7697 12.2683 4.84112C12.4515 4.91254 12.6471 4.94652 12.8436 4.94104H15.0596V15.0584H12.8436C12.4535 15.0584 12.0794 15.2133 11.8036 15.4892C11.5277 15.765 11.3728 16.1391 11.3728 16.5292C11.3728 16.9193 11.5277 17.2934 11.8036 17.5692C12.0794 17.845 12.4535 18 12.8436 18H16.5293C16.7224 18 16.9137 17.962 17.0921 17.888C17.2706 17.8141 17.4327 17.7058 17.5693 17.5692C17.7059 17.4326 17.8142 17.2705 17.8882 17.092C17.9621 16.9136 18.0001 16.7223 18.0001 16.5292V3.47138C18.0004 3.27819 17.9625 3.08684 17.8886 2.90836C17.8146 2.72989 17.7061 2.56779 17.5693 2.43141Z" fill="#E5F1FF"/>
</svg>
