<svg width="22" height="24" viewBox="0 0 22 24" fill="none" xmlns="http://www.w3.org/2000/svg">
<path d="M11 0C4.97597 0 0.431396 2.16343 0.431396 5.03314C0.431396 7.90286 4.97597 10.0646 11 10.0646C17.024 10.0646 21.5685 7.90114 21.5685 5.03314C21.5685 2.16514 17.024 0 11 0Z" fill="white"/>
<path d="M11 13.2584C7.29646 13.4138 3.62681 12.4971 0.431396 10.6184V12.0001C0.431396 14.8698 4.97597 17.0333 11 17.0333C17.024 17.0333 21.5685 14.8698 21.5685 12.0001V10.6184C18.3731 12.4971 14.7035 13.4138 11 13.2584Z" fill="white"/>
<path d="M11 20.2286C7.29646 20.384 3.62681 19.4673 0.431396 17.5886V18.9703C0.431396 21.8366 4.97597 24.0001 11 24.0001C17.024 24.0001 21.5685 21.8366 21.5685 18.9669V17.5852C18.3735 19.4651 14.7038 20.3829 11 20.2286Z" fill="white"/>
</svg>
