<svg width="18" height="14" viewBox="0 0 18 14" fill="none" xmlns="http://www.w3.org/2000/svg">
<path d="M5.10811 13.138L0.642825 8.67141C0.437991 8.46675 0.275498 8.22373 0.164632 7.95624C0.0537674 7.68876 -0.0032959 7.40204 -0.0032959 7.11248C-0.0032959 6.82293 0.0537674 6.53621 0.164632 6.26872C0.275498 6.00123 0.437991 5.75821 0.642825 5.55356C1.05649 5.1405 1.61717 4.9085 2.20175 4.9085C2.78633 4.9085 3.34702 5.1405 3.76068 5.55356L6.55711 8.34741C6.61348 8.40347 6.68975 8.43494 6.76925 8.43494C6.84875 8.43494 6.92502 8.40347 6.9814 8.34741L14.2328 1.09598C14.6465 0.682929 15.2072 0.450928 15.7918 0.450928C16.3763 0.450928 16.937 0.682929 17.3507 1.09598C17.5555 1.30064 17.718 1.54366 17.8289 1.81115C17.9397 2.07864 17.9968 2.36536 17.9968 2.65491C17.9968 2.94447 17.9397 3.23118 17.8289 3.49867C17.718 3.76616 17.5555 4.00918 17.3507 4.21384L8.42782 13.138C7.98756 13.5781 7.39051 13.8254 6.76797 13.8254C6.14543 13.8254 5.54837 13.5781 5.10811 13.138Z" fill="white"/>
</svg>
